<svg width="761" height="540" viewBox="0 0 761 540" fill="none" xmlns="http://www.w3.org/2000/svg">
<g id="undraw_stars_re_6je7 1">
<path id="Vector" d="M678.727 289.333C675.41 326.255 658.713 361.934 634.895 391.442C633.899 392.677 632.892 393.899 631.872 395.111C629.578 397.836 627.225 400.51 624.813 403.133C621.861 406.364 618.823 409.52 615.7 412.603C613.157 415.14 610.555 417.622 607.894 420.051C605.84 421.945 603.762 423.802 601.661 425.622C576.384 447.639 547.347 465.809 517.43 481.699C459.044 512.698 395.047 536.181 328.482 539.601C261.925 543.012 192.444 524.637 143.633 480.876C77.8499 421.902 59.4904 323.538 86.1983 240.858C103.962 185.853 140.219 136.092 189.563 103.593C238.48 71.376 300.191 56.8747 358.595 66.3537C405.219 39.0394 466.254 38.5166 516.941 58.7345C543.986 69.5248 568.258 85.5689 589.552 104.955C599.303 113.852 608.428 123.367 616.864 133.435C617.727 134.455 618.58 135.484 619.425 136.521C622.964 140.832 626.386 145.231 629.694 149.719C634.442 156.156 638.949 162.735 643.217 169.457C644.39 171.308 645.555 173.168 646.693 175.045C647.458 176.305 648.231 177.573 648.987 178.851C649.004 178.877 649.016 178.906 649.022 178.936C660.856 199 670.529 220.409 675.57 242.787C676.46 246.746 677.206 250.723 677.784 254.734V254.743C678.291 258.145 678.673 261.565 678.931 265.001C679.539 273.104 679.471 281.241 678.727 289.333V289.333Z" fill="#3F3D56"/>
<path id="Vector_2" opacity="0.3" d="M505.037 345.15L373.043 239.151L501.273 349.396C501.521 349.799 501.866 350.139 502.278 350.388C502.69 350.638 503.158 350.789 503.642 350.829C504.127 350.869 504.615 350.797 505.065 350.619C505.515 350.441 505.914 350.163 506.23 349.806C506.546 349.45 506.77 349.026 506.882 348.57C506.994 348.113 506.991 347.638 506.875 347.183C506.758 346.727 506.531 346.305 506.211 345.952C505.891 345.598 505.489 345.324 505.037 345.15V345.15Z" fill="#F0F0F0"/>
<path id="Vector_3" d="M202.339 291.21C246.04 291.21 281.467 257.059 281.467 214.932C281.467 172.805 246.04 138.655 202.339 138.655C158.638 138.655 123.211 172.805 123.211 214.932C123.211 257.059 158.638 291.21 202.339 291.21Z" fill="#F2F2F2"/>
<path id="Vector_4" d="M272.576 209.79C272.577 218.907 270.715 227.934 267.096 236.357C263.477 244.78 258.173 252.433 251.485 258.88C244.798 265.326 236.859 270.44 228.121 273.928C219.383 277.417 210.018 279.212 200.561 279.211C192.131 279.207 183.767 277.786 175.844 275.012C163.456 270.661 152.543 263.118 144.294 253.203C136.045 243.288 130.776 231.381 129.06 218.78C127.345 206.178 129.248 193.364 134.564 181.733C139.88 170.102 148.404 160.099 159.208 152.815C170.012 145.53 182.682 141.242 195.839 140.418C208.996 139.594 222.136 142.265 233.827 148.141C245.518 154.016 255.313 162.871 262.146 173.741C268.978 184.611 272.586 197.08 272.576 209.79V209.79Z" fill="white"/>
<path id="Vector_5" d="M188.114 208.076C200.389 208.076 210.341 198.483 210.341 186.65C210.341 174.816 200.389 165.223 188.114 165.223C175.838 165.223 165.887 174.816 165.887 186.65C165.887 198.483 175.838 208.076 188.114 208.076Z" fill="#E4E4E4"/>
<path id="Vector_6" d="M269.767 190.532C264.95 192.766 259.459 193.252 254.3 191.9C249.142 190.549 244.661 187.45 241.68 183.173C238.699 178.895 237.416 173.725 238.068 168.611C238.72 163.496 241.262 158.779 245.228 155.324C257.016 164.307 265.595 176.617 269.767 190.532Z" fill="#F2F2F2"/>
<path id="Vector_7" d="M224.566 240.644C228.985 240.644 232.568 237.19 232.568 232.93C232.568 228.67 228.985 225.217 224.566 225.217C220.147 225.217 216.564 228.67 216.564 232.93C216.564 237.19 220.147 240.644 224.566 240.644Z" fill="#E4E4E4"/>
<path id="Vector_8" d="M191.67 276.64C191.669 277.317 191.577 277.992 191.394 278.646C186.085 278.005 180.868 276.786 175.844 275.012C176.262 273.151 177.378 271.504 178.979 270.389C180.58 269.273 182.552 268.768 184.516 268.97C186.48 269.172 188.298 270.067 189.618 271.483C190.939 272.899 191.67 274.736 191.67 276.64Z" fill="#F2F2F2"/>
<path id="Vector_9" d="M144.549 206.362C144.548 210.275 143.005 214.042 140.232 216.9C137.459 219.758 133.663 221.493 129.612 221.754C127.779 211.567 128.313 201.114 131.177 191.149C134.913 191.75 138.307 193.608 140.755 196.393C143.203 199.179 144.548 202.711 144.549 206.362Z" fill="#F2F2F2"/>
<path id="Vector_10" d="M539.189 181.854C541.007 181.854 542.481 180.433 542.481 178.681C542.481 176.929 541.007 175.508 539.189 175.508C537.371 175.508 535.898 176.929 535.898 178.681C535.898 180.433 537.371 181.854 539.189 181.854Z" fill="#6C63FF"/>
<path id="Vector_11" d="M508.823 104.656C509.885 104.656 510.747 103.826 510.747 102.802C510.747 101.778 509.885 100.948 508.823 100.948C507.761 100.948 506.9 101.778 506.9 102.802C506.9 103.826 507.761 104.656 508.823 104.656Z" fill="#F0F0F0"/>
<path id="Vector_12" d="M200.312 468.047C201.374 468.047 202.235 467.216 202.235 466.193C202.235 465.169 201.374 464.339 200.312 464.339C199.25 464.339 198.389 465.169 198.389 466.193C198.389 467.216 199.25 468.047 200.312 468.047Z" fill="#F0F0F0"/>
<path id="Vector_13" d="M519.74 286.047C520.803 286.047 521.664 285.217 521.664 284.194C521.664 283.17 520.803 282.34 519.74 282.34C518.678 282.34 517.817 283.17 517.817 284.194C517.817 285.217 518.678 286.047 519.74 286.047Z" fill="#F0F0F0"/>
<path id="Vector_14" d="M271.576 303.556C273.394 303.556 274.867 302.135 274.867 300.383C274.867 298.63 273.394 297.209 271.576 297.209C269.758 297.209 268.284 298.63 268.284 300.383C268.284 302.135 269.758 303.556 271.576 303.556Z" fill="#6C63FF"/>
<path id="Vector_15" d="M152.439 371.932C161.023 371.932 167.983 365.223 167.983 356.948C167.983 348.673 161.023 341.964 152.439 341.964C143.854 341.964 136.895 348.673 136.895 356.948C136.895 365.223 143.854 371.932 152.439 371.932Z" fill="#6C63FF"/>
<path id="Vector_16" d="M237.654 375.485C238.716 375.485 239.577 374.655 239.577 373.631C239.577 372.607 238.716 371.777 237.654 371.777C236.591 371.777 235.73 372.607 235.73 373.631C235.73 374.655 236.591 375.485 237.654 375.485Z" fill="#F0F0F0"/>
<path id="Vector_17" d="M433.251 85.8009C434.314 85.8009 435.175 84.9709 435.175 83.9471C435.175 82.9232 434.314 82.0932 433.251 82.0932C432.189 82.0932 431.328 82.9232 431.328 83.9471C431.328 84.9709 432.189 85.8009 433.251 85.8009Z" fill="#F0F0F0"/>
<path id="Vector_18" d="M318.56 480.902C319.622 480.902 320.483 480.072 320.483 479.048C320.483 478.025 319.622 477.195 318.56 477.195C317.498 477.195 316.637 478.025 316.637 479.048C316.637 480.072 317.498 480.902 318.56 480.902Z" fill="#F0F0F0"/>
<path id="Vector_19" d="M290.109 102.942C291.171 102.942 292.032 102.112 292.032 101.088C292.032 100.064 291.171 99.2343 290.109 99.2343C289.047 99.2343 288.186 100.064 288.186 101.088C288.186 102.112 289.047 102.942 290.109 102.942Z" fill="#F0F0F0"/>
<path id="Vector_20" d="M339.898 192.933C340.96 192.933 341.821 192.103 341.821 191.079C341.821 190.055 340.96 189.225 339.898 189.225C338.836 189.225 337.975 190.055 337.975 191.079C337.975 192.103 338.836 192.933 339.898 192.933Z" fill="#F0F0F0"/>
<path id="Vector_21" d="M263.685 413.748C264.747 413.748 265.608 412.918 265.608 411.895C265.608 410.871 264.747 410.041 263.685 410.041C262.623 410.041 261.762 410.871 261.762 411.895C261.762 412.918 262.623 413.748 263.685 413.748Z" fill="#F0F0F0"/>
<path id="Vector_22" d="M488.623 425.747C489.685 425.747 490.546 424.917 490.546 423.893C490.546 422.869 489.685 422.039 488.623 422.039C487.561 422.039 486.7 422.869 486.7 423.893C486.7 424.917 487.561 425.747 488.623 425.747Z" fill="#F0F0F0"/>
<path id="Vector_23" d="M389.046 317.758C390.108 317.758 390.969 316.928 390.969 315.905C390.969 314.881 390.108 314.051 389.046 314.051C387.983 314.051 387.122 314.881 387.122 315.905C387.122 316.928 387.983 317.758 389.046 317.758Z" fill="#F0F0F0"/>
<path id="Vector_24" d="M439.723 192.629C440.785 192.629 441.646 191.799 441.646 190.775C441.646 189.751 440.785 188.921 439.723 188.921C438.661 188.921 437.8 189.751 437.8 190.775C437.8 191.799 438.661 192.629 439.723 192.629Z" fill="#F0F0F0"/>
<path id="Vector_25" d="M531.859 254.496C533.965 254.496 535.672 252.851 535.672 250.821C535.672 248.79 533.965 247.145 531.859 247.145C529.753 247.145 528.046 248.79 528.046 250.821C528.046 252.851 529.753 254.496 531.859 254.496Z" fill="#FF6584"/>
<path id="Vector_26" d="M377.159 132.795C379.265 132.795 380.972 131.149 380.972 129.119C380.972 127.089 379.265 125.443 377.159 125.443C375.053 125.443 373.346 127.089 373.346 129.119C373.346 131.149 375.053 132.795 377.159 132.795Z" fill="#FF6584"/>
<path id="Vector_27" d="M377.159 385.625C379.265 385.625 380.972 383.98 380.972 381.95C380.972 379.92 379.265 378.274 377.159 378.274C375.053 378.274 373.346 379.92 373.346 381.95C373.346 383.98 375.053 385.625 377.159 385.625Z" fill="#FF6584"/>
<path id="Vector_28" d="M614.731 403.133C613.245 403.134 611.801 403.601 610.616 404.464C609.43 405.327 608.568 406.538 608.16 407.915C607.98 408.505 607.891 409.117 607.894 409.732V420.051C610.552 417.625 613.154 415.143 615.7 412.603C618.82 409.518 621.858 406.361 624.813 403.133H614.731Z" fill="#6C63FF"/>
<g id="Moon">
<path id="Vector_29" d="M635.322 265.07C684.67 265.07 724.674 226.507 724.674 178.936C724.674 131.366 684.67 92.8023 635.322 92.8023C585.974 92.8023 545.969 131.366 545.969 178.936C545.969 226.507 585.974 265.07 635.322 265.07Z" fill="white"/>
</g>
<path id="Vector_30" d="M635.322 91.5167C617.386 91.5167 599.852 96.6438 584.939 106.25C570.026 115.855 558.402 129.508 551.538 145.482C544.675 161.456 542.879 179.033 546.378 195.991C549.877 212.949 558.514 228.525 571.197 240.751C583.879 252.977 600.038 261.303 617.63 264.676C635.221 268.049 653.455 266.318 670.026 259.701C686.597 253.085 700.76 241.88 710.725 227.504C720.689 213.128 726.008 196.226 726.008 178.936C726.051 167.444 723.734 156.058 719.192 145.433C714.65 134.808 707.972 125.155 699.542 117.029C691.113 108.903 681.098 102.466 670.077 98.0869C659.055 93.7083 647.243 91.4754 635.322 91.5167V91.5167ZM635.322 263.784C617.913 263.784 600.896 258.808 586.421 249.485C571.946 240.162 560.665 226.91 554.003 211.406C547.341 195.902 545.598 178.842 548.994 162.383C552.39 145.924 560.773 130.806 573.083 118.939C585.392 107.073 601.076 98.9921 618.15 95.7182C635.224 92.4444 652.922 94.1246 669.005 100.547C685.088 106.969 698.835 117.844 708.507 131.797C718.178 145.75 723.341 162.155 723.341 178.936C723.386 190.091 721.14 201.144 716.732 211.457C712.325 221.771 705.843 231.142 697.661 239.029C689.478 246.917 679.757 253.165 669.058 257.414C658.359 261.663 646.893 263.828 635.322 263.784V263.784Z" fill="#2F2E41"/>
<path id="Vector_31" d="M556.909 199.566C556.5 199.566 556.103 199.429 555.786 199.18C555.469 198.93 555.251 198.583 555.169 198.197C552.613 185.647 553.075 172.699 556.518 160.348C559.961 147.997 566.294 136.57 575.032 126.946C575.346 126.608 575.786 126.404 576.256 126.379C576.726 126.353 577.187 126.508 577.539 126.81C577.89 127.112 578.103 127.536 578.131 127.989C578.158 128.442 577.999 128.887 577.687 129.226C569.314 138.449 563.245 149.399 559.945 161.236C556.645 173.072 556.203 185.48 558.652 197.506C558.705 197.756 558.7 198.013 558.637 198.26C558.574 198.507 558.454 198.738 558.288 198.935C558.121 199.132 557.91 199.291 557.672 199.4C557.434 199.509 557.173 199.566 556.909 199.566H556.909Z" fill="#2F2E41"/>
<path id="Vector_32" d="M635.266 258.959C666.631 258.959 692.058 234.449 692.058 204.213C692.058 173.978 666.631 149.467 635.266 149.467C603.901 149.467 578.474 173.978 578.474 204.213C578.474 234.449 603.901 258.959 635.266 258.959Z" fill="#6C63FF"/>
<path id="Vector_33" d="M617.216 224.882C613.535 224.783 608.953 224.66 605.424 222.175C604.372 221.404 603.509 220.421 602.893 219.295C602.278 218.169 601.925 216.927 601.86 215.656C601.796 214.752 601.95 213.847 602.309 213.01C602.669 212.173 603.224 211.428 603.932 210.833C605.775 209.331 608.467 208.979 611.368 209.801L608.363 188.626L610.569 188.335L614.103 213.228L612.26 212.413C610.124 211.468 607.192 210.988 605.369 212.472C604.922 212.86 604.573 213.343 604.351 213.882C604.128 214.421 604.037 215.002 604.086 215.58C604.14 216.527 604.404 217.45 604.862 218.289C605.32 219.128 605.959 219.862 606.737 220.441C609.484 222.375 613.136 222.624 617.278 222.736L617.216 224.882Z" fill="#2F2E41"/>
<path id="Vector_34" d="M597.451 190.452H585.456V192.599H597.451V190.452Z" fill="#2F2E41"/>
<path id="Vector_35" d="M635.312 190.452H623.317V192.599H635.312V190.452Z" fill="#2F2E41"/>
<path id="Vector_36" d="M637.651 272.492H586.173C584.254 272.494 582.415 273.229 581.058 274.537C579.701 275.845 578.938 277.619 578.936 279.468V389.454C578.941 396.907 581.062 404.217 585.067 410.592C589.073 416.967 594.811 422.165 601.661 425.622C603.768 423.805 605.846 421.948 607.894 420.051C610.552 417.625 613.154 415.143 615.7 412.603C618.82 409.518 621.858 406.361 624.813 403.133C627.231 400.51 629.584 397.836 631.872 395.111C632.895 393.902 633.902 392.679 634.895 391.442C658.713 361.934 675.41 326.255 678.727 289.333C673.41 284.004 667.03 279.765 659.972 276.871C652.914 273.977 645.321 272.488 637.651 272.492Z" fill="#2F2E41"/>
<path id="Vector_37" d="M639.527 295.444C638.302 294.288 636.853 293.377 635.261 292.764C633.669 292.15 631.968 291.847 630.254 291.87C627.275 291.892 624.397 292.91 622.11 294.75C621.744 295.035 621.397 295.341 621.07 295.667L578.936 337.32L548.378 367.531C547.914 367.982 547.53 368.503 547.24 369.073C546.782 369.956 546.548 370.932 546.556 371.919C546.565 372.731 546.741 373.533 547.074 374.278C547.406 375.024 547.889 375.699 548.494 376.264L549.694 377.395L558.407 385.58L558.416 385.572C559.587 386.488 561.052 386.982 562.559 386.969C563.401 386.96 564.234 386.79 565.007 386.469C565.781 386.149 566.481 385.683 567.067 385.1L568.481 383.712L578.598 373.71L578.936 373.376L639.758 313.245C642.176 310.854 643.509 307.636 643.466 304.298C643.423 300.96 642.006 297.775 639.527 295.444L639.527 295.444Z" fill="#6C63FF"/>
<path id="Vector_38" d="M639.1 178.672C640.978 174.844 639.052 170.755 635.753 168.31C631.596 165.229 626.22 165.738 621.492 167.197C616.316 168.794 611.256 171.667 605.663 171.502C603.67 171.468 601.734 170.854 600.109 169.741C598.484 168.628 597.245 167.068 596.556 165.265C593.56 157.861 596.943 149.585 602.156 143.97C605.1 140.754 608.738 138.199 612.815 136.483C616.892 134.768 621.309 133.934 625.756 134.04C630.833 134.283 635.768 135.732 640.122 138.26C644.476 140.788 648.114 144.315 650.711 148.526C650.896 148.814 651.188 149.022 651.528 149.108C651.867 149.194 652.228 149.151 652.536 148.987C656.493 147.282 660.761 146.35 665.094 146.245C669.427 146.14 673.739 146.864 677.78 148.375C683.842 150.757 689.01 154.861 692.595 160.141C696.181 165.421 698.016 171.628 697.856 177.937C697.811 179.592 700.479 179.591 700.523 177.937C700.69 169.117 697.313 160.576 691.099 154.1C687.945 150.871 684.15 148.284 679.94 146.493C675.731 144.702 671.191 143.742 666.59 143.671C661.279 143.563 656.013 144.621 651.189 146.767L653.014 147.229C650.61 143.327 647.38 139.958 643.535 137.34C639.691 134.723 635.317 132.915 630.699 132.035C626.127 131.212 621.424 131.347 616.91 132.431C612.397 133.515 608.177 135.521 604.539 138.315C597.692 143.48 592.502 151.497 592.825 160.093C592.965 163.813 594.112 167.632 596.791 170.404C600.223 173.955 605.346 174.569 610.079 173.659C616.37 172.45 622.114 168.462 628.671 168.584C629.956 168.585 631.226 168.849 632.397 169.358C633.568 169.867 634.614 170.61 635.465 171.537C636.91 173.108 637.781 175.369 636.797 177.375C636.067 178.863 638.365 180.169 639.1 178.673L639.1 178.672Z" fill="#2F2E41"/>
<path id="Vector_39" d="M745.456 387.359C754.041 387.359 761 380.65 761 372.375C761 364.1 754.041 357.391 745.456 357.391C736.871 357.391 729.912 364.1 729.912 372.375C729.912 380.65 736.871 387.359 745.456 387.359Z" fill="#6C63FF"/>
<path id="Vector_40" d="M294.692 29.9678C303.276 29.9678 310.236 23.2593 310.236 14.9839C310.236 6.70852 303.276 0 294.692 0C286.107 0 279.148 6.70852 279.148 14.9839C279.148 23.2593 286.107 29.9678 294.692 29.9678Z" fill="#E6E6E6"/>
<path id="Vector_41" d="M113.319 102.148C118.574 102.148 122.834 98.0415 122.834 92.9757C122.834 87.9099 118.574 83.8033 113.319 83.8033C108.064 83.8033 103.804 87.9099 103.804 92.9757C103.804 98.0415 108.064 102.148 113.319 102.148Z" fill="#FF6584"/>
<g id="Uydu">
<path id="Vector_42" d="M638.939 456.75C627.459 456.75 614.877 456.332 601.192 455.496C530.409 451.163 438.723 436.098 343.024 413.078C247.325 390.058 159.046 361.832 94.4498 333.6C62.9829 319.847 38.8323 306.829 22.6695 294.906C5.55728 282.284 -1.92784 271.282 0.421174 262.207C4.99816 244.527 45.5252 240.659 78.7172 240.528L78.7285 243.099C33.147 243.279 6.25624 250.287 3.00945 262.83C-1.12643 278.805 32.604 303.746 95.5512 331.258C160.006 359.428 248.122 387.6 343.67 410.584C439.217 433.567 530.734 448.606 601.361 452.929C670.335 457.153 712.268 450.412 716.404 434.436C719.837 421.172 697.201 401.632 652.666 379.415L653.892 377.131C686.252 393.275 723.814 416.429 718.992 435.059C716.642 444.134 704.673 450.455 683.415 453.848C671.297 455.781 656.413 456.75 638.939 456.75Z" fill="#6C63FF"/>
<path id="Vector_43" d="M213.437 487.968C181.786 487.969 152.362 486.922 126.02 484.809C91.589 482.048 64.3048 477.607 44.9265 471.614C24.4095 465.267 13.5247 457.329 12.5745 448.021C10.7225 429.887 47.5456 413.118 78.7624 402.243L79.6688 404.662C36.8002 419.595 13.915 434.904 15.2287 447.77C16.9018 464.156 57.3641 476.722 126.241 482.247C196.768 487.904 289.581 485.899 387.584 476.599C485.587 467.301 577.026 451.825 645.054 433.021C711.492 414.658 748.637 394.729 746.964 378.342C745.574 364.738 717.444 353.665 667.754 347.164L668.112 344.616C704.218 349.34 747.667 358.982 749.618 378.09C750.568 387.399 741.497 397.23 722.658 407.311C704.864 416.832 679.001 426.314 645.79 435.493C577.61 454.338 486.004 469.845 387.845 479.158C326.268 485 266.712 487.968 213.437 487.968Z" fill="#6C63FF"/>
<path id="Vector_44" d="M17.2984 386.502C25.8831 386.502 32.8423 379.793 32.8423 371.518C32.8423 363.243 25.8831 356.534 17.2984 356.534C8.7138 356.534 1.75458 363.243 1.75458 371.518C1.75458 379.793 8.7138 386.502 17.2984 386.502Z" fill="#E6E6E6"/>
<path id="Vector_45" d="M68.8652 450.112C74.1203 450.112 78.3804 446.005 78.3804 440.939C78.3804 435.873 74.1203 431.767 68.8652 431.767C63.61 431.767 59.3499 435.873 59.3499 440.939C59.3499 446.005 63.61 450.112 68.8652 450.112Z" fill="#FF6584"/>
</g>
<path id="Vector_46" d="M717.895 300.127C723.15 300.127 727.41 296.021 727.41 290.955C727.41 285.889 723.15 281.782 717.895 281.782C712.64 281.782 708.379 285.889 708.379 290.955C708.379 296.021 712.64 300.127 717.895 300.127Z" fill="#FF6584"/>
<path id="Vector_47" d="M573.863 527.916C582.448 527.916 589.407 521.207 589.407 512.932C589.407 504.656 582.448 497.948 573.863 497.948C565.279 497.948 558.32 504.656 558.32 512.932C558.32 521.207 565.279 527.916 573.863 527.916Z" fill="#E6E6E6"/>
</g>
</svg>
